<?xml version="1.0" encoding="utf-8"?>
<!-- Generator: Adobe Illustrator 26.5.0, SVG Export Plug-In . SVG Version: 6.00 Build 0)  -->
<svg version="1.1" id="Слой_1" xmlns="http://www.w3.org/2000/svg" xmlns:xlink="http://www.w3.org/1999/xlink" x="0px" y="0px"
	 viewBox="0 0 20 19.9" style="enable-background:new 0 0 20 19.9;" xml:space="preserve">
<path d="M4.9,0.5c0.8,1,1.6,2.4,2.7,4c0.3,0.4,0.2,1-0.1,1.6c-0.1,0.3-0.5,0.9-1,1.8c0.6,0.8,1.4,1.8,2.6,3s2.1,2,2.9,2.6
	c0.9-0.5,1.5-0.9,1.8-1c0.3-0.2,0.7-0.3,1-0.3c0.2,0,0.4,0.1,0.6,0.2c1.2,0.7,2.5,1.6,4,2.7c0.3,0.2,0.4,0.5,0.5,0.9
	c0,0.4-0.1,0.8-0.3,1.2c-0.1,0.2-0.3,0.4-0.6,0.8c-0.3,0.3-0.7,0.8-1.3,1.3s-1,0.8-1.4,0.8h0c-2.7-0.1-6.1-2.2-10.1-6.2
	c-4-4-6.1-7.4-6.2-10.1c0-0.4,0.3-0.8,0.8-1.4c0.5-0.6,1-1,1.3-1.3C2.4,0.7,2.7,0.5,3,0.3C3.2,0.1,3.6,0,3.9,0
	C4.4,0,4.7,0.2,4.9,0.5L4.9,0.5z M3.7,1.3C3.1,1.7,2.6,2.1,2.1,2.6C1.6,3.1,1.4,3.4,1.3,3.7c0.1,2.4,2,5.5,5.8,9.2s6.8,5.7,9.2,5.8
	c0.2-0.1,0.6-0.4,1-0.9c0.5-0.5,0.9-1,1.3-1.6c0.1-0.1,0.1-0.2,0.1-0.3c-1.6-1.1-2.9-2-3.9-2.6c-0.1,0-0.2,0-0.4,0.1
	c-0.2,0.1-0.8,0.5-1.8,1L12,14.9l-0.7-0.4c-0.9-0.6-1.9-1.5-3.1-2.8C7,10.5,6.1,9.4,5.5,8.6L5.1,7.9l0.4-0.7c0.5-0.9,0.8-1.5,1-1.8
	c0.1-0.2,0.1-0.3,0.1-0.4C5.6,3.6,4.7,2.3,4,1.2h0C3.8,1.2,3.7,1.2,3.7,1.3L3.7,1.3z"/>
</svg>
